# xmcd
#
# Track frame offsets:
#	150
#	17690
#	31377
#	45857
#	63950
#	90407
#	113365
#	128872
#	142495
#	158575
#	176115
#	190730
#	207797
#	219962
#	230465
#	248322
#	261702
#	274850
#	289427
#	302587
#
# Disc length: 4339 seconds
#
# Revision: 0
# Processed by: cddbd v1.5.2PL0 Copyright (c) Steve Scherf et al.
# Submitted via: EasyCDDAExtractor 2010.6.0.0
#
DISCID=1610f114
DTITLE=Smokey Robinson - Steppin' and Walkin' With Smokey
DYEAR=2010
DGENRE=R&B
TTITLE0=I Am
TTITLE1=Swept For You Baby
TTITLE2=Give Her Up
TTITLE3=Quiet Storm
TTITLE4=What' Love Has Joined Together
TTITLE5=You've Made Me So Very Happy
TTITLE6=Fork In The Road
TTITLE7=Do It Baby
TTITLE8=Take This Love
TTITLE9=Daylight and Darkness
TTITLE10=Satisfaction
TTITLE11=We've Come Too Far To End It Now
TTITLE12=Second That Emotion
TTITLE13=Special Occasion
TTITLE14=Baby, Baby Don't Cry
TTITLE15=Here I Go Again
TTITLE16=Love Machine
TTITLE17=Don't Cha Love It
TTITLE18=Didn't Realize the Show Was Over
TTITLE19=Virgin Man
EXTD=
EXTT0=
EXTT1=
EXTT2=
EXTT3=
EXTT4=
EXTT5=
EXTT6=
EXTT7=
EXTT8=
EXTT9=
EXTT10=
EXTT11=
EXTT12=
EXTT13=
EXTT14=
EXTT15=
EXTT16=
EXTT17=
EXTT18=
EXTT19=
PLAYORDER=
